HIERARCHY
ROOT Hips
{
	OFFSET 0.00000 0.00000 0.00000
	CHANNELS 6 Xposition Yposition Zposition Zrotation Yrotation Xrotation 
	JOINT LHipJoint
	{
		OFFSET 0 0 0
		CHANNELS 3 Zrotation Yrotation Xrotation
		JOINT LeftUpLeg
		{
			OFFSET 1.44960 -1.75505 0.85172
			CHANNELS 3 Zrotation Yrotation Xrotation
			JOINT LeftLeg
			{
				OFFSET 2.40573 -6.60971 0.00000
				CHANNELS 3 Zrotation Yrotation Xrotation
				JOINT LeftFoot
				{
					OFFSET 2.58773 -7.10974 0.00000
					CHANNELS 3 Zrotation Yrotation Xrotation
					JOINT LeftToeBase
					{
						OFFSET 0.18252 -0.50147 1.77316
						CHANNELS 3 Zrotation Yrotation Xrotation
						End Site
						{
							OFFSET 0.00000 -0.00000 0.92990
						}
					}
				}
			}
		}
	}
	JOINT RHipJoint
	{
		OFFSET 0 0 0
		CHANNELS 3 Zrotation Yrotation Xrotation
		JOINT RightUpLeg
		{
			OFFSET -1.40744 -1.75505 0.85172
			CHANNELS 3 Zrotation Yrotation Xrotation
			JOINT RightLeg
			{
				OFFSET -2.43714 -6.69600 0.00000
				CHANNELS 3 Zrotation Yrotation Xrotation
				JOINT RightFoot
				{
					OFFSET -2.51650 -6.91404 0.00000
					CHANNELS 3 Zrotation Yrotation Xrotation
					JOINT RightToeBase
					{
						OFFSET -0.25383 -0.69740 1.96384
						CHANNELS 3 Zrotation Yrotation Xrotation
						End Site
						{
							OFFSET -0.00000 -0.00000 1.04244
						}
					}
				}
			}
		}
	}
	JOINT LowerBack
	{
		OFFSET 0 0 0
		CHANNELS 3 Zrotation Yrotation Xrotation
		JOINT Spine
		{
			OFFSET 0.00579 2.14458 -0.24367
			CHANNELS 3 Zrotation Yrotation Xrotation
			JOINT Spine1
			{
				OFFSET 0.05899 2.16316 -0.04515
				CHANNELS 3 Zrotation Yrotation Xrotation
				JOINT Neck
				{
					OFFSET 0 0 0
					CHANNELS 3 Zrotation Yrotation Xrotation
					JOINT Neck1
					{
						OFFSET -0.01650 1.59577 0.24841
						CHANNELS 3 Zrotation Yrotation Xrotation
						JOINT Head
						{
							OFFSET -0.01016 1.63072 -0.17782
							CHANNELS 3 Zrotation Yrotation Xrotation
							End Site
							{
								OFFSET -0.00250 1.64111 -0.08717
							}
						}
					}
				}
				JOINT LeftShoulder
				{
					OFFSET 0 0 0
					CHANNELS 3 Zrotation Yrotation Xrotation
					JOINT LeftArm
					{
						OFFSET 3.17745 0.95174 -0.45729
						CHANNELS 3 Zrotation Yrotation Xrotation
						JOINT LeftForeArm
						{
							OFFSET 4.93485 -0.00000 0.00000
							CHANNELS 3 Zrotation Yrotation Xrotation
							JOINT LeftHand
							{
								OFFSET 3.41719 -0.00000 -0.00000
								CHANNELS 3 Zrotation Yrotation Xrotation
								JOINT LeftFingerBase
								{
									OFFSET 0 0 0
									CHANNELS 3 Zrotation Yrotation Xrotation
									JOINT LeftHandIndex1
									{
										OFFSET 0.62410 -0.00000 -0.00000
										CHANNELS 3 Zrotation Yrotation Xrotation
										End Site
										{
											OFFSET 0.50317 -0.00000 -0.00000
										}
									}
								}
								JOINT LThumb
								{
									OFFSET 0 0 0
									CHANNELS 3 Zrotation Yrotation Xrotation
									End Site
									{
										OFFSET 0.51085 -0.00000 0.51085
									}
								}
							}
						}
					}
				}
				JOINT RightShoulder
				{
					OFFSET 0 0 0
					CHANNELS 3 Zrotation Yrotation Xrotation
					JOINT RightArm
					{
						OFFSET -2.87924 1.13038 -0.75204
						CHANNELS 3 Zrotation Yrotation Xrotation
						JOINT RightForeArm
						{
							OFFSET -5.22034 -0.00000 0.00000
							CHANNELS 3 Zrotation Yrotation Xrotation
							JOINT RightHand
							{
								OFFSET -3.41809 -0.00000 -0.00000
								CHANNELS 3 Zrotation Yrotation Xrotation
								JOINT RightFingerBase
								{
									OFFSET 0 0 0
									CHANNELS 3 Zrotation Yrotation Xrotation
									JOINT RightHandIndex1
									{
										OFFSET -0.77534 -0.00000 -0.00000
										CHANNELS 3 Zrotation Yrotation Xrotation
										End Site
										{
											OFFSET -0.62510 -0.00000 -0.00000
										}
									}
								}
								JOINT RThumb
								{
									OFFSET 0 0 0
									CHANNELS 3 Zrotation Yrotation Xrotation
									End Site
									{
										OFFSET -0.63464 -0.00000 0.63464
									}
								}
							}
						}
					}
				}
			}
		}
	}
}
MOTION
Frames: 13
Frame Time: 0.153846
0.00 0.00 0.00 0 0 0 0 0 0 -21 0 0 0 0 0 0 0 0 0 0 0 0 0 0 21 0 0 0 0 0 0 0 0 0 0 0 0 0 0 0 0 0 0 0 0 0 0 -16 0 0 21 0 0 11 0 0 0 -8 0 0 0 0 0 0 0 0 0 0 0 0 0 0 0 0 0 0 0 0 8 0 0 0 0 0 0 0 0 0 0 0 0 0 0 0 0 0
0.00 0.00 0.00 2.0495 -7.1577 11.5230 0.0000 0.0000 0.0000 -18.6016 -7.1439 -22.0873 1.9278 8.7140 24.9048 0.6002 2.2695 -15.6323 0.0469 -1.3970 -3.8419 0.0000 0.0000 0.0000 11.4838 10.7156 -25.8015 -2.4740 -9.7904 28.3007 -0.5323 1.9634 -13.2458 -0.2919 -3.4743 9.6021 8.9826 -1.9344 25.7427 13.8025 -0.0898 12.2414 10.4548 -0.2576 -0.4072 -8.2934 -12.3287 -6.9312 3.8929 -16.4208 19.7041 0.9955 -7.9405 8.2683 0.0000 0.0000 0.0000 -92.8709 0.9080 40.3106 39.0221 -47.4797 -17.7151 -0.0000 0.0000 -5.7358 5.7173 41.6690 3.8081 -7.1250 0.0000 -0.0000 -42.0588 67.2440 -24.1994 0.0000 0.0000 0.0000 49.9850 27.0772 6.6401 -17.4938 27.5041 -4.3129 0.0000 -0.0000 -10.4245 -26.6514 21.9488 -10.6248 7.1250 -0.0000 -0.0000 1.3586 -5.7153 1.2169
0.00 0.00 0.00 -0.2222 -8.4147 6.0325 0.0000 0.0000 0.0000 -10.9150 -5.1707 -21.0307 4.8539 13.2174 40.1878 0.2570 3.1014 -11.2351 0.0402 -1.2940 -3.5580 0.0000 0.0000 0.0000 21.7004 5.5325 -15.3162 -2.0781 -9.0268 25.8792 -0.6366 7.6269 -14.3916 -1.0606 -6.5478 18.3825 8.6662 -1.0133 26.0190 10.8475 1.5309 8.4414 6.6819 0.6287 -5.0640 -4.5972 -2.7716 -12.8785 -6.2083 -2.8096 0.0457 -1.3752 -1.6555 2.2144 -0.0000 -0.0000 0.0000 -90.3788 6.3871 37.2089 29.3005 -40.2862 -10.9545 -0.0000 0.0000 -4.1449 5.6471 40.2047 3.6522 -7.1250 0.0000 -0.0000 -39.7654 66.1484 -21.7427 -0.0000 -0.0000 0.0000 63.8544 11.2647 13.3367 -13.8532 22.5244 -2.7716 0.0000 -0.0000 -9.1627 -15.9145 20.5297 -5.7102 7.1250 -0.0000 -0.0000 8.0478 -8.8727 6.7792
0.00 0.00 0.00 -4.6853 -1.7498 6.1102 0.0000 0.0000 0.0000 -8.3114 -11.6486 -33.3726 3.1773 10.9767 32.2014 0.4117 -0.8476 -11.8544 0.0011 -0.2174 -0.5974 0.0000 0.0000 0.0000 28.9010 -0.7894 2.8239 -0.2938 -3.4857 9.6340 -0.9478 0.3586 -18.2873 -0.2258 -3.0586 8.4418 6.2777 1.2777 11.9477 5.1542 2.8040 1.3332 1.4358 1.2933 -5.2694 -4.5716 -1.6334 -18.1880 -4.4263 -0.7088 4.6635 -0.7200 -0.7346 4.3114 -0.0000 -0.0000 0.0000 -89.7567 11.6137 25.8593 20.3470 -31.0581 -5.7093 -0.0000 -0.0000 0.9768 4.9052 40.0888 3.1634 -7.1250 0.0000 -0.0000 -40.3260 65.8453 -21.8197 -0.0000 -0.0000 0.0000 80.5238 3.6153 -11.9898 -4.3408 7.4688 -0.2835 0.0000 0.0000 9.7949 -22.4619 20.7077 -8.3172 7.1250 -0.0000 -0.0000 3.8742 -7.7745 3.3223
0.00 0.00 0.00 -0.5490 -1.2925 4.9471 0.0000 0.0000 0.0000 -20.8858 -5.2620 -20.7478 1.3492 7.3535 20.7669 0.2123 -8.5910 -9.5054 0.3405 3.7498 10.3738 0.0000 0.0000 0.0000 19.0431 -0.7977 -0.5611 -5.3529 -13.7705 42.3258 0.1824 -7.5651 -2.2318 -0.2099 -2.9500 8.1396 -2.2583 2.1866 5.4913 1.1285 2.8062 -1.1609 2.1718 1.4669 -4.4477 -4.1630 -2.4474 -22.9070 0.0380 -2.0021 12.4457 0.4203 -1.1592 7.5925 0.0000 -0.0000 0.0000 -85.7790 12.7836 19.7783 15.8439 -25.3085 -3.5789 -0.0000 -0.0000 6.3874 1.2813 41.7230 0.8528 -7.1250 0.0000 -0.0000 -46.4134 65.9504 -25.8167 0.0000 -0.0000 0.0000 80.8020 6.7486 -10.9068 -5.8206 9.9625 -0.5077 0.0000 0.0000 1.4738 -17.5571 25.7114 -7.8158 7.1250 -0.0000 -0.0000 7.3614 -3.3746 6.9740
0.00 0.00 0.00 1.6270 1.1319 3.0714 0.0000 0.0000 0.0000 -24.8690 -2.0638 -14.3173 0.9047 6.0616 16.9631 0.0497 -11.4210 -8.7175 0.5959 4.9417 13.7425 0.0000 0.0000 0.0000 16.1880 -1.6116 -8.7252 -9.8841 -17.3442 59.1004 0.1594 -9.3467 -9.9442 -1.0666 -6.5657 18.4348 -4.9223 1.2191 6.2924 0.3994 1.2492 -1.2258 3.0500 0.7660 -4.9278 -3.4705 -2.4253 -22.4098 0.2963 -2.2561 14.4112 0.3589 -1.2349 8.1727 0.0000 0.0000 0.0000 -83.6076 10.4689 20.9715 17.0908 -26.9773 -4.1284 -0.0000 -0.0000 3.7835 2.4409 41.6043 1.6212 -7.1250 0.0000 -0.0000 -45.1208 66.2119 -25.2272 0.0000 0.0000 0.0000 81.0124 5.2152 0.3787 -8.9987 15.1584 -1.1998 0.0000 -0.0000 -11.1673 -16.3447 25.9396 -7.3101 7.1250 -0.0000 -0.0000 8.1136 -3.3305 7.7075
0.00 0.00 0.00 0.4612 11.1036 6.3681 0.0000 0.0000 0.0000 -22.8555 -2.2947 10.6978 1.3870 7.4516 21.0605 -0.0449 -5.9363 -2.7329 0.0006 -0.1624 -0.4461 0.0000 0.0000 0.0000 19.8903 1.9094 -27.3334 -1.5624 -7.8879 22.3740 0.1497 -10.1300 -11.6532 -0.4506 -4.3067 11.9411 -1.5871 -2.8245 6.4405 2.5370 -3.7713 -2.7301 3.9790 -1.7412 -6.1887 -0.3032 -1.0427 -21.8522 -4.1026 -0.4624 16.1580 -1.4133 -0.6953 8.6257 0.0000 0.0000 0.0000 -81.7405 4.4741 31.0826 18.7170 -29.0655 -4.8926 -0.0000 -0.0000 6.5126 1.3838 42.0127 0.9263 -7.1250 0.0000 -0.0000 -46.7971 66.1781 -26.3047 0.0000 0.0000 0.0000 85.1065 -0.6222 -9.4327 -8.6365 14.5792 -1.1068 0.0000 -0.0000 -3.4756 -15.5611 24.4934 -6.5857 7.1250 -0.0000 -0.0000 8.4878 -4.9045 7.8192
0.00 0.00 0.00 -1.3055 9.6983 6.7176 0.0000 0.0000 0.0000 -19.3485 -1.9318 1.3335 4.2462 12.4810 37.4556 0.1134 -5.1604 10.2539 0.1696 2.6531 7.3143 0.0000 0.0000 0.0000 23.6241 2.7697 -21.0341 -1.1060 -6.6819 18.7765 0.1099 -10.1303 -12.4789 -0.8085 -5.7384 16.0273 -0.0346 -2.1925 6.8734 3.1244 -2.7336 -2.9900 3.6443 -1.2656 -6.8366 -1.3572 -0.9516 -22.6333 -2.7868 -0.2280 17.4015 -0.7773 -0.5267 9.1980 0.0000 -0.0000 0.0000 -81.8981 9.3667 26.0797 18.1875 -28.3966 -4.6381 -0.0000 -0.0000 4.0864 2.0420 41.7022 1.3588 -7.1250 0.0000 -0.0000 -45.6612 66.1613 -25.5328 0.0000 -0.0000 0.0000 86.0396 -3.2637 -14.0814 -7.3464 12.4879 -0.8049 0.0000 0.0000 0.7359 -15.9427 21.3107 -5.9271 7.1250 -0.0000 -0.0000 8.0671 -8.0756 6.9247
0.00 0.00 0.00 -3.7215 9.8253 6.1643 0.0000 0.0000 0.0000 -15.3744 -3.8310 -8.0945 8.3747 16.3881 53.9015 0.2489 -3.7951 11.6039 0.6272 5.0675 14.1012 0.0000 0.0000 0.0000 27.7588 0.8548 -15.3479 -0.7004 -5.3493 14.9077 0.0097 -9.4224 -13.2548 -1.0049 -6.3787 17.8872 2.7003 -1.7966 8.0476 3.5722 -1.8527 -2.7022 2.5100 -0.9383 -7.3387 -1.6318 -1.2724 -22.4543 -2.4730 -0.6807 16.2439 -0.6768 -0.7053 8.7632 -0.0000 0.0000 0.0000 -81.8812 12.3088 22.0400 18.1812 -28.3886 -4.6351 -0.0000 -0.0000 0.6300 3.0581 42.1755 2.0543 -7.1250 0.0000 -0.0000 -45.4922 66.7919 -26.0485 -0.0000 0.0000 0.0000 86.7828 -5.7863 -19.1876 -6.4553 11.0194 -0.6233 0.0000 0.0000 5.9419 -15.2061 18.6187 -4.9597 7.1250 -0.0000 -0.0000 8.4326 -10.8956 6.7622
0.00 0.00 0.00 -5.0346 7.2700 6.0650 0.0000 0.0000 0.0000 -11.7858 -8.4821 -23.9776 12.0814 18.4248 66.2466 -0.0256 -6.4439 -3.8153 0.5587 4.7879 13.3046 0.0000 0.0000 0.0000 31.0347 1.8711 -7.8904 -0.7438 -5.5093 15.3672 -0.4065 -9.0877 -18.5986 -0.7002 -5.3488 14.9060 3.5630 0.0840 9.1212 3.4850 0.7655 -1.6676 1.5468 0.3104 -6.8920 -1.9862 -2.2340 -23.1812 -2.3531 -1.8816 16.1802 -0.7534 -1.2797 8.8622 0.0000 0.0000 0.0000 -83.4239 16.5829 12.8092 17.7263 -27.8053 -4.4208 -0.0000 0.0000 -3.2602 6.3910 41.8778 4.2761 -7.1250 0.0000 -0.0000 -41.7514 67.6009 -24.3222 0.0000 0.0000 0.0000 87.7800 -11.3452 -23.6979 -5.5973 9.5889 -0.4698 0.0000 0.0000 10.3224 -13.7393 14.0331 -3.3929 7.1250 -0.0000 -0.0000 9.3521 -15.6775 6.5663
0.00 0.00 0.00 0.7536 -1.0258 4.8749 0.0000 0.0000 0.0000 -24.5559 -11.3063 -19.1820 2.3009 9.4665 27.2658 0.3740 -8.7253 -11.6668 0.8172 5.7684 16.1139 0.0000 0.0000 0.0000 17.6064 -0.5300 -9.3398 -10.2256 -17.5348 60.2398 -0.1661 -7.9726 8.5612 -0.6187 -5.0339 14.0052 -3.8198 2.1151 8.5493 0.6498 2.4518 -1.2944 2.4851 1.3552 -6.3529 -0.1855 -0.3940 -20.4829 -2.3634 -0.0112 15.2836 -0.7649 -0.2665 8.0991 0.0000 0.0000 0.0000 -82.5950 17.5910 11.9685 15.4544 -24.7753 -3.4141 -0.0000 -0.0000 5.2921 -1.8951 41.6965 -1.2608 -7.1250 0.0000 -0.0000 -49.3162 65.0055 -26.7448 0.0000 0.0000 0.0000 86.9662 -12.4425 -28.7077 -5.8630 10.0335 -0.5151 0.0000 0.0000 14.6936 -10.6756 13.0656 -2.4402 7.1250 -0.0000 -0.0000 11.4620 -16.8554 7.8051
0.00 0.00 0.00 5.0263 9.6120 4.9335 0.0000 0.0000 0.0000 -27.0740 1.2837 16.7612 0.1922 2.8235 7.7879 -0.9486 -19.1688 -2.5184 0.1751 2.6952 7.4312 0.0000 0.0000 0.0000 11.7616 5.9620 -27.7248 -1.2010 -6.9532 19.5767 -0.2736 -3.6242 -11.8952 -0.0000 -0.0151 0.0415 -6.6271 -2.2905 6.6190 0.4985 -3.5207 0.4847 4.5374 -1.6704 -2.7774 3.1902 0.2602 -18.3503 -5.4489 0.6338 17.5987 -2.2920 -0.0681 8.5371 -0.0000 0.0000 0.0000 -79.5652 2.7557 28.7451 34.3674 -44.3551 -14.3693 -0.0000 0.0000 -6.5395 9.2281 43.5789 6.3904 -7.1250 0.0000 -0.0000 -42.0905 69.7147 -26.4492 -0.0000 0.0000 0.0000 86.4366 -17.9085 -26.1002 -6.3154 10.7871 -0.5969 0.0000 0.0000 10.7273 -8.6075 13.3245 -1.9980 7.1250 -0.0000 -0.0000 12.8626 -16.7166 8.8469
0.00 0.00 0.00 -0.2347 10.0781 2.9238 0.0000 0.0000 0.0000 -18.6365 -3.5731 6.1650 4.4775 12.7701 38.5139 0.0544 -16.7067 24.1859 0.5727 4.8465 13.4714 0.0000 0.0000 0.0000 21.7612 7.9009 -19.3281 -1.9371 -8.7339 24.9664 -0.1164 -6.8796 -12.2149 -2.2779 -9.4224 27.1257 -3.8774 -3.1945 9.2886 3.3674 -4.4994 -0.0590 6.2985 -2.1017 -4.6943 4.6921 1.0095 -15.5895 -7.9243 1.8067 16.5821 -3.2058 0.3862 7.8006 -0.0000 -0.0000 0.0000 -85.6788 3.7015 31.0639 18.6440 -28.9739 -4.8572 -0.0000 -0.0000 2.7684 0.4575 45.3658 0.3255 -7.1250 0.0000 -0.0000 -53.7940 68.0212 -33.2432 -0.0000 -0.0000 0.0000 85.6038 -15.7312 -18.5598 -7.7867 13.2065 -0.9028 0.0000 0.0000 5.6387 -12.7825 16.4352 -3.6727 7.1250 -0.0000 -0.0000 9.9924 -13.3347 7.5364
